<?xml version="1.0" encoding="UTF-8" standalone="no"?>
<svg
   fill="none"
   version="1.1"
   id="svg2"
   width="145.45441"
   height="144.35115"
   xmlns="http://www.w3.org/2000/svg"
   xmlns:svg="http://www.w3.org/2000/svg">
  <defs
     id="defs2" />
  <g
     id="layer1"
     style="display:inline;fill:#ffffff;fill-opacity:1"
     transform="translate(-0.949585,-0.662842)">
    <path
       d="m 47.5965,113.511 h -9.6491 c 4.3858,3.501 13.9644,10.501 26.3158,10.501 14.277,0 19.2982,-3.5 19.2982,-3.5 0,0 5.0044,9.251 9.6491,14.001 4.9778,5.089 14.9125,10.501 14.9125,10.501 l 12.281,-10.501 c 0,0 -11.021,-6.08 -15.79,-12.251 -3.088,-3.996 -6.1403,-11.376 -6.1403,-11.376 0,0 3.1493,-3.054 6.1403,-7.875 5.25,-8.4624 7.018,-14.8764 7.018,-24.5022 0,-6.2357 -1.117,-10.7944 -3.509,-16.6262 -2.807,-6.8422 -6.141,-10.5008 -10.5265,-14.8761 -4.1874,-4.1773 -10.5263,-7.8756 -10.5263,-7.8756 0,0 -0.8772,4.3753 -3.5088,7.0005 6.1404,4.3753 12.2807,12.2509 14.0351,21.8766 2.5005,13.7193 -1.7544,26.252 -10.5263,33.253 -11.8426,9.451 -23.9823,12.25 -39.4737,12.25 z"
       fill="#ffffff"
       id="path2"
       style="fill:#ffffff;fill-opacity:1" />
    <path
       d="m 74.3812,48.2104 c 5.614,2.2402 9.7684,5.6565 12.4631,10.2488 2.6947,4.4804 4.0421,9.4087 4.0421,14.7851 0,6.7205 -1.2912,12.209 -3.8737,16.4653 -2.4701,4.2563 -5.8386,7.6166 -10.1052,10.0808 -4.1544,2.4646 -8.9263,4.2006 -14.3158,5.2086 -5.3895,0.896 -11.0035,1.344 -16.8421,1.344 H 10.8864 V 17.6321 H 7.18116 c -0.89824,0 -1.85263,-0.112 -2.86315,-0.336 C 3.30748,16.9601 2.18467,16.6241 0.949585,16.288 V 2.34297 C 2.07239,2.56698 3.30748,2.791 4.65485,3.01502 6.1145,3.23904 7.518,3.35104 8.86537,3.35104 c 2.47013,0 4.88423,-0.16801 7.24213,-0.50403 2.4702,-0.33603 4.9403,-0.50404 7.4105,-0.50404 3.4807,-0.44804 6.9614,-0.84006 10.4421,-1.17609 3.4807,-0.336025 7.1298,-0.504038 10.9474,-0.504038 4.3789,0 8.7017,0.392028 12.9684,1.176088 4.2667,0.78406 8.0842,2.18416 11.4526,4.20032 3.4807,2.01615 6.2877,4.81635 8.4211,8.40065 2.1333,3.5843 3.1998,8.1766 3.1998,13.777 0,3.8083 -0.6174,6.9446 -1.8525,9.4087 -1.235,2.3522 -2.5824,4.3684 -4.0421,6.0485 l -4.5473,3.0242 z m 2.021,26.7141 c 0,-3.6963 -1.0105,-6.7766 -3.0316,-9.2407 C 71.4619,63.1076 68.9917,61.0914 65.9601,59.6353 63.0408,58.1792 59.7847,57.1711 56.1917,56.6111 52.711,55.939 49.3426,55.603 46.0864,55.603 H 38.1706 V 41.3219 h 7.9158 c 4.2667,-0.336 7.8597,-1.0081 10.779,-2.0161 3.0315,-1.0081 5.5579,-2.6322 7.5789,-4.8724 0.5614,-0.56 1.0667,-1.3441 1.5158,-2.3522 0.5614,-1.0081 0.8421,-2.4082 0.8421,-4.2003 0,-0.336 -0.0561,-0.6721 -0.1684,-1.0081 -0.1123,-0.336 -0.1684,-0.784 -0.1684,-1.3441 -0.3369,-2.0161 -1.179,-3.6963 -2.5263,-5.0404 C 62.704,19.0322 61.132,17.9121 59.2233,17.1281 57.4268,16.344 55.3496,15.784 52.9917,15.448 50.7461,15.1119 48.3882,14.9439 45.918,14.9439 c -4.1544,0 -7.9719,0.28 -11.4526,0.8401 -3.3684,0.448 -6.4562,0.728 -9.2632,0.84 v 75.6058 c 1.0105,0 2.1895,0.056 3.5369,0.168 1.4596,0 2.9754,0.056 4.5473,0.168 1.572,0.112 3.1439,0.224 4.7156,0.336 1.572,0 3.0318,0 4.3792,0 4.4912,0 8.7017,-0.224 12.6315,-0.672 3.9299,-0.5601 7.4106,-1.4561 10.4421,-2.6882 3.0316,-1.3441 5.5018,-3.1923 7.4106,-5.5444 1.9087,-2.3522 3.0877,-5.3764 3.5368,-9.0727 z"
       fill="#ffffff"
       id="path1"
       style="fill:#ffffff;fill-opacity:1" />
  </g>
</svg>
