<svg width="19" height="20" viewBox="0 0 19 20" fill="none" xmlns="http://www.w3.org/2000/svg">
<path d="M6.82568 14.5C6.12568 14.5 5.53402 14.2583 5.05068 13.775C4.56735 13.2917 4.32568 12.7 4.32568 12C4.32568 11.3 4.56735 10.7083 5.05068 10.225C5.53402 9.74167 6.12568 9.5 6.82568 9.5C7.52568 9.5 8.11735 9.74167 8.60068 10.225C9.08402 10.7083 9.32568 11.3 9.32568 12C9.32568 12.7 9.08402 13.2917 8.60068 13.775C8.11735 14.2583 7.52568 14.5 6.82568 14.5ZM2.82568 20C2.27568 20 1.80485 19.8042 1.41318 19.4125C1.02152 19.0208 0.825684 18.55 0.825684 18V4C0.825684 3.45 1.02152 2.97917 1.41318 2.5875C1.80485 2.19583 2.27568 2 2.82568 2H3.82568V0H5.82568V2H13.8257V0H15.8257V2H16.8257C17.3757 2 17.8465 2.19583 18.2382 2.5875C18.6299 2.97917 18.8257 3.45 18.8257 4V18C18.8257 18.55 18.6299 19.0208 18.2382 19.4125C17.8465 19.8042 17.3757 20 16.8257 20H2.82568ZM2.82568 18H16.8257V8H2.82568V18Z" fill="#284239"/>
</svg>
