<svg width="21" height="22" viewBox="0 0 21 22" fill="none" xmlns="http://www.w3.org/2000/svg">
<path d="M18.575 10.11V4C18.575 3.46957 18.3642 2.96086 17.9892 2.58579C17.6141 2.21071 17.1054 2 16.575 2H12.395C11.975 0.84 10.875 0 9.57495 0C8.27495 0 7.17495 0.84 6.75495 2H2.57495C1.47495 2 0.574951 2.9 0.574951 4V18C0.574951 18.5304 0.785665 19.0391 1.16074 19.4142C1.53581 19.7893 2.04452 20 2.57495 20H8.68495C9.94495 21.24 11.665 22 13.575 22C17.445 22 20.575 18.87 20.575 15C20.575 13.09 19.815 11.37 18.575 10.11ZM9.57495 2C10.125 2 10.575 2.45 10.575 3C10.575 3.55 10.125 4 9.57495 4C9.02495 4 8.57495 3.55 8.57495 3C8.57495 2.45 9.02495 2 9.57495 2ZM2.57495 18V4H4.57495V6H14.575V4H16.575V8.68C15.665 8.25 14.655 8 13.575 8H4.57495V10H8.67495C8.07495 10.57 7.61495 11.25 7.25495 12H4.57495V14H6.65495C6.60495 14.33 6.57495 14.66 6.57495 15C6.57495 16.08 6.82495 17.09 7.25495 18H2.57495ZM13.575 20C10.815 20 8.57495 17.76 8.57495 15C8.57495 12.24 10.815 10 13.575 10C16.335 10 18.575 12.24 18.575 15C18.575 17.76 16.335 20 13.575 20ZM14.075 15.25L16.935 16.94L16.185 18.16L12.575 16V11H14.075V15.25Z" fill="#284239"/>
</svg>
