<svg width="21" height="20" viewBox="0 0 21 20" fill="none" xmlns="http://www.w3.org/2000/svg">
<path d="M17.575 19V3C17.575 2.46957 17.3642 1.96086 16.9892 1.58579C16.6141 1.21071 16.1054 1 15.575 1H5.57495C5.04452 1 4.53581 1.21071 4.16074 1.58579C3.78566 1.96086 3.57495 2.46957 3.57495 3V19M17.575 19H19.575M17.575 19H12.575M3.57495 19H1.57495M3.57495 19H8.57495M12.575 19V14C12.575 13.7348 12.4696 13.4804 12.2821 13.2929C12.0945 13.1054 11.8402 13 11.575 13H9.57495C9.30973 13 9.05538 13.1054 8.86784 13.2929C8.68031 13.4804 8.57495 13.7348 8.57495 14V19M12.575 19H8.57495M7.57495 5H8.57495M7.57495 9H8.57495M12.575 5H13.575M12.575 9H13.575" stroke="#284239" stroke-width="2" stroke-linecap="round" stroke-linejoin="round"/>
</svg>
