<svg width="18" height="18" viewBox="0 0 18 18" fill="none" xmlns="http://www.w3.org/2000/svg">
<path d="M6.5 13.425C4.68333 13.425 3.146 12.7957 1.888 11.537C0.63 10.2783 0.000667196 8.74099 5.29101e-07 6.92499C-0.000666138 5.10899 0.628667 3.57165 1.888 2.31299C3.14733 1.05432 4.68467 0.424988 6.5 0.424988C8.31533 0.424988 9.853 1.05432 11.113 2.31299C12.373 3.57165 13.002 5.10899 13 6.92499C13 7.65832 12.8833 8.34999 12.65 8.99999C12.4167 9.64999 12.1 10.225 11.7 10.725L17.3 16.325C17.4833 16.5083 17.575 16.7417 17.575 17.025C17.575 17.3083 17.4833 17.5417 17.3 17.725C17.1167 17.9083 16.8833 18 16.6 18C16.3167 18 16.0833 17.9083 15.9 17.725L10.3 12.125C9.8 12.525 9.225 12.8417 8.575 13.075C7.925 13.3083 7.23333 13.425 6.5 13.425ZM6.5 11.425C7.75 11.425 8.81267 10.9877 9.688 10.113C10.5633 9.23832 11.0007 8.17565 11 6.92499C10.9993 5.67432 10.562 4.61199 9.688 3.73799C8.814 2.86399 7.75133 2.42632 6.5 2.42499C5.24867 2.42365 4.18633 2.86132 3.313 3.73799C2.43967 4.61465 2.002 5.67699 2 6.92499C1.998 8.17299 2.43567 9.23565 3.313 10.113C4.19033 10.9903 5.25267 11.4277 6.5 11.425Z" fill="#284239"/>
</svg>
