<svg width="308" height="113" viewBox="0 0 308 113" fill="none" xmlns="http://www.w3.org/2000/svg">
<g clip-path="url(#clip0_174_915)">
<path d="M143.792 62.32C143.792 64.752 143.792 67.152 143.792 69.52C143.792 71.824 143.76 73.904 143.696 75.76C143.696 77.552 143.696 79.024 143.696 80.176C143.696 81.264 143.696 81.84 143.696 81.904H134.864V76.816C133.008 79.12 130.768 80.752 128.144 81.712C125.52 82.672 122.832 83.152 120.08 83.152C117.84 83.152 115.6 82.8 113.36 82.096C111.12 81.456 109.104 80.464 107.312 79.12C105.52 77.776 104.08 76.112 102.992 74.128C101.904 72.08 101.36 69.712 101.36 67.024C101.36 64.272 101.808 61.904 102.704 59.92C103.664 57.936 104.944 56.336 106.544 55.12C108.208 53.84 110.128 52.912 112.304 52.336C114.544 51.76 116.976 51.472 119.6 51.472C121.904 51.472 124.336 51.664 126.896 52.048C129.52 52.432 132.176 53.04 134.864 53.872V53.488C134.992 52.976 135.056 52.528 135.056 52.144C135.056 51.76 135.056 51.344 135.056 50.896C135.056 49.168 134.704 47.664 134 46.384C133.36 45.104 132.496 44.048 131.408 43.216C130.32 42.384 129.072 41.776 127.664 41.392C126.32 40.944 124.912 40.72 123.44 40.72C122.032 40.72 120.656 40.88 119.312 41.2C117.968 41.52 116.752 42.032 115.664 42.736C114.576 43.44 113.68 44.336 112.976 45.424C112.272 46.448 111.888 47.696 111.824 49.168H102.992C103.184 46.352 103.856 43.888 105.008 41.776C106.224 39.664 107.728 37.936 109.52 36.592C111.376 35.184 113.456 34.128 115.76 33.424C118.064 32.72 120.432 32.368 122.864 32.368C125.68 32.368 128.336 32.752 130.832 33.52C133.328 34.288 135.504 35.504 137.36 37.168C139.28 38.832 140.784 40.976 141.872 43.6C143.024 46.16 143.632 49.296 143.696 53.008V53.488C144.656 53.36 145.616 53.2 146.576 53.008C147.6 52.816 148.656 52.592 149.744 52.336V61.36L143.792 62.32ZM134.96 62.512C134.576 62.512 133.872 62.384 132.848 62.128C131.888 61.872 130.736 61.616 129.392 61.36C128.112 61.04 126.704 60.752 125.168 60.496C123.696 60.24 122.256 60.112 120.848 60.112C119.76 60.112 118.576 60.24 117.296 60.496C116.08 60.688 114.928 61.072 113.84 61.648C112.816 62.224 111.952 62.96 111.248 63.856C110.544 64.752 110.192 65.872 110.192 67.216C110.192 68.304 110.48 69.296 111.056 70.192C111.696 71.088 112.528 71.888 113.552 72.592C114.576 73.232 115.76 73.744 117.104 74.128C118.448 74.512 119.888 74.704 121.424 74.704C123.216 74.704 124.912 74.416 126.512 73.84C128.112 73.2 129.52 72.432 130.736 71.536C132.016 70.64 133.008 69.68 133.712 68.656C134.48 67.632 134.896 66.704 134.96 65.872V62.512ZM220.592 62.224C219.312 65.872 217.36 69.2 214.736 72.208C212.112 75.216 208.912 77.68 205.136 79.6C200.656 81.84 195.952 82.96 191.024 82.96C187.952 82.96 185.008 82.576 182.192 81.808C179.376 80.976 176.752 79.824 174.32 78.352C171.888 76.816 169.68 74.992 167.696 72.88C165.776 70.768 164.144 68.368 162.8 65.68C161.712 63.44 160.88 61.136 160.304 58.768C159.792 56.4 159.536 54.064 159.536 51.76C159.536 48.88 159.92 46.032 160.688 43.216C161.52 40.4 162.672 37.776 164.144 35.344C165.616 32.848 167.44 30.608 169.616 28.624C171.792 26.576 174.256 24.848 177.008 23.44C181.616 21.2 186.384 20.08 191.312 20.08C194.32 20.08 197.2 20.496 199.952 21.328C202.768 22.096 205.392 23.248 207.824 24.784C210.256 26.256 212.432 28.048 214.352 30.16C216.336 32.272 218 34.672 219.344 37.36C220.048 38.704 220.624 40.016 221.072 41.296C218.768 41.296 217.008 41.296 215.792 41.296C214.576 41.232 213.68 41.2 213.104 41.2C212.528 41.2 212.176 41.2 212.048 41.2C211.92 41.136 211.856 41.104 211.856 41.104C209.936 37.136 207.12 34.032 203.408 31.792C199.76 29.552 195.728 28.432 191.312 28.432C187.536 28.432 184.016 29.264 180.752 30.928C178.704 31.952 176.88 33.232 175.28 34.768C173.744 36.24 172.432 37.904 171.344 39.76C170.256 41.552 169.424 43.472 168.848 45.52C168.272 47.568 167.984 49.648 167.984 51.76C167.984 55.28 168.784 58.672 170.384 61.936C172.304 65.904 175.088 69.008 178.736 71.248C182.448 73.488 186.544 74.608 191.024 74.608C194.48 74.608 197.936 73.776 201.392 72.112C203.632 71.024 205.616 69.616 207.344 67.888C209.072 66.16 210.48 64.272 211.568 62.224H220.592ZM239.297 58.48V61.456C239.489 63.696 240.065 65.648 241.025 67.312C242.049 68.976 243.329 70.384 244.865 71.536C246.401 72.624 248.097 73.456 249.953 74.032C251.873 74.608 253.793 74.896 255.713 74.896C257.697 74.896 259.617 74.672 261.473 74.224C263.329 73.712 264.993 72.976 266.465 72.016C267.937 71.056 269.121 69.872 270.017 68.464C270.913 67.056 271.361 65.424 271.361 63.568C271.361 61.52 270.785 59.92 269.633 58.768C268.545 57.616 267.105 56.752 265.313 56.176C263.521 55.536 261.473 55.088 259.169 54.832C256.865 54.576 254.497 54.288 252.065 53.968C249.633 53.648 247.265 53.232 244.961 52.72C242.657 52.144 240.609 51.248 238.817 50.032C237.025 48.752 235.553 47.088 234.401 45.04C233.313 42.928 232.769 40.208 232.769 36.88C232.769 34 233.377 31.504 234.593 29.392C235.873 27.216 237.537 25.424 239.585 24.016C241.697 22.544 244.065 21.456 246.689 20.752C249.313 20.048 252.001 19.696 254.753 19.696C257.505 19.696 260.193 20.048 262.817 20.752C265.441 21.456 267.777 22.544 269.825 24.016C271.937 25.424 273.633 27.216 274.913 29.392C276.193 31.504 276.865 34 276.929 36.88V38.896H268.673V36.88C268.417 35.344 267.809 34.032 266.849 32.944C265.889 31.792 264.737 30.832 263.393 30.064C262.049 29.296 260.545 28.72 258.881 28.336C257.281 27.952 255.649 27.76 253.985 27.76C252.321 27.76 250.689 27.952 249.089 28.336C247.553 28.72 246.177 29.296 244.961 30.064C243.809 30.832 242.849 31.792 242.081 32.944C241.377 34.032 241.025 35.344 241.025 36.88C241.025 38.928 241.569 40.528 242.657 41.68C243.809 42.768 245.281 43.632 247.073 44.272C248.865 44.848 250.913 45.264 253.217 45.52C255.585 45.776 257.953 46.096 260.321 46.48C262.753 46.8 265.121 47.248 267.425 47.824C269.793 48.4 271.873 49.328 273.665 50.608C275.457 51.824 276.897 53.456 277.985 55.504C279.137 57.552 279.713 60.24 279.713 63.568C279.713 67.152 279.073 70.192 277.793 72.688C276.513 75.184 274.817 77.232 272.705 78.832C270.593 80.368 268.161 81.488 265.409 82.192C262.721 82.96 259.969 83.344 257.153 83.344C248.769 83.344 242.273 81.168 237.665 76.816C233.121 72.4 230.849 66.288 230.849 58.48H239.297Z" fill="white"/>
<path d="M74.7673 48.688C77.9673 49.968 80.3353 51.92 81.8713 54.544C83.4073 57.104 84.1753 59.92 84.1753 62.992C84.1753 66.832 83.4393 69.968 81.9673 72.4C80.5593 74.832 78.6393 76.752 76.2073 78.16C73.8393 79.568 71.1193 80.56 68.0473 81.136C64.9753 81.648 61.7753 81.904 58.4473 81.904H38.5753V31.216H36.4633C35.9513 31.216 35.4073 31.152 34.8313 31.024C34.2553 30.832 33.6153 30.64 32.9113 30.448V22.48C33.5513 22.608 34.2553 22.736 35.0233 22.864C35.8553 22.992 36.6553 23.056 37.4233 23.056C38.8313 23.056 40.2073 22.96 41.5513 22.768C42.9593 22.576 44.3673 22.48 45.7753 22.48C47.7593 22.224 49.7433 22 51.7273 21.808C53.7113 21.616 55.7913 21.52 57.9673 21.52C60.4633 21.52 62.9273 21.744 65.3593 22.192C67.7913 22.64 69.9673 23.44 71.8873 24.592C73.8713 25.744 75.4713 27.344 76.6873 29.392C77.9033 31.44 78.5112 34.064 78.5112 37.264C78.5112 39.44 78.1593 41.232 77.4553 42.64C76.7513 43.984 75.9833 45.136 75.1513 46.096L72.5593 47.824L74.7673 48.688ZM75.9193 63.952C75.9193 61.84 75.3433 60.08 74.1913 58.672C73.1033 57.2 71.6953 56.048 69.9673 55.216C68.3033 54.384 66.4473 53.808 64.3993 53.488C62.4153 53.104 60.4953 52.912 58.6393 52.912H54.1273V44.752H58.6393C61.0713 44.56 63.1193 44.176 64.7833 43.6C66.5113 43.024 67.9513 42.096 69.1033 40.816C69.4233 40.496 69.7113 40.048 69.9673 39.472C70.2873 38.896 70.4473 38.096 70.4473 37.072C70.4473 36.88 70.4153 36.688 70.3513 36.496C70.2873 36.304 70.2553 36.048 70.2553 35.728C70.0633 34.576 69.5833 33.616 68.8153 32.848C68.1113 32.016 67.2153 31.376 66.1273 30.928C65.1033 30.48 63.9193 30.16 62.5753 29.968C61.2953 29.776 59.9513 29.68 58.5433 29.68C56.1753 29.68 53.9993 29.84 52.0153 30.16C50.0953 30.416 48.3353 30.576 46.7353 30.64V73.84C47.3113 73.84 47.9833 73.872 48.7513 73.936C49.5833 73.936 50.4473 73.968 51.3433 74.032C52.2393 74.096 53.1353 74.16 54.0312 74.224C54.9272 74.224 55.7593 74.224 56.5273 74.224C59.0873 74.224 61.4873 74.096 63.7273 73.84C65.9673 73.52 67.9513 73.008 69.6793 72.304C71.4073 71.536 72.8153 70.48 73.9033 69.136C74.9913 67.792 75.6632 66.064 75.9193 63.952Z" fill="white"/>
<path d="M59.5 86.5H54C56.4999 88.5 61.9597 92.5 69 92.5C77.1379 92.5 80 90.5 80 90.5C80 90.5 82.8525 95.7862 85.5 98.5C88.3373 101.408 94 104.5 94 104.5L101 98.5C101 98.5 94.7185 95.0265 92 91.5C90.2398 89.2167 88.5 85 88.5 85C88.5 85 90.2952 83.2547 92 80.5C94.9923 75.6649 96 72 96 66.5C96 62.937 95.3637 60.3322 94 57C92.4001 53.0905 90.5 51 88 48.5C85.6132 46.1132 82 44 82 44C82 44 81.5 46.5 80 48C83.5 50.5 87 55 88 60.5C89.4253 68.339 87 75.5 82 79.5C75.2497 84.9003 68.3301 86.5 59.5 86.5Z" fill="white"/>
</g>
<defs>
<clipPath id="clip0_174_915">
<rect width="308" height="113" fill="white"/>
</clipPath>
</defs>
</svg>
