<svg width="197" height="231" viewBox="0 0 197 231" fill="none" xmlns="http://www.w3.org/2000/svg">
    <path d="M164.167 16H32.8333C14.7 16 0 30.7 0 48.8333V180.167C0 198.3 14.7 213 32.8333 213H164.167C182.3 213 197 198.3 197 180.167V48.8333C197 30.7 182.3 16 164.167 16Z" fill="#284239"/>
    <path d="M88.9957 162.908H25.9211L26.7852 45.6829H88.9957C88.9957 45.6829 127.877 49.9333 127.877 74.9888C127.877 94.8135 120.965 97.4 120.965 97.4C120.965 97.4 136.518 104.988 136.518 128.43C136.518 161.184 88.9957 162.908 88.9957 162.908Z" fill="#284239" stroke="#284239"/>
    <path d="M113.65 99.4472C119.18 101.654 123.272 105.019 125.927 109.542C128.581 113.955 129.908 118.81 129.908 124.106C129.908 130.725 128.636 136.131 126.093 140.324C123.659 144.516 120.341 147.826 116.139 150.253C112.047 152.681 107.346 154.391 102.038 155.384C96.7291 156.266 91.1993 156.708 85.4483 156.708H51.1081V69.3275H47.4584C46.5736 69.3275 45.6336 69.2172 44.6382 68.9965C43.6428 68.6656 42.5369 68.3346 41.3203 68.0036V54.2677C42.4263 54.4884 43.6428 54.709 44.97 54.9297C46.4077 55.1503 47.7902 55.2607 49.1174 55.2607C51.5505 55.2607 53.9283 55.0952 56.2508 54.7642C58.684 54.4332 61.1171 54.2677 63.5502 54.2677C66.9787 53.8264 70.4072 53.4403 73.8357 53.1093C77.2642 52.7783 80.8586 52.6128 84.6188 52.6128C88.9321 52.6128 93.1901 52.9989 97.3927 53.7712C101.595 54.5435 105.356 55.9226 108.674 57.9086C112.102 59.8945 114.867 62.6527 116.968 66.1832C119.07 69.7137 120.12 74.2372 120.12 79.7536C120.12 83.5047 119.512 86.5939 118.295 89.0211C117.079 91.338 115.752 93.324 114.314 94.9789L109.835 97.9577L113.65 99.4472ZM115.641 125.76C115.641 122.12 114.646 119.086 112.655 116.658C110.775 114.121 108.342 112.135 105.356 110.701C102.48 109.266 99.2729 108.273 95.7338 107.722C92.3053 107.06 88.9874 106.729 85.7801 106.729H77.983V92.662H85.7801C89.9828 92.331 93.5218 91.669 96.3974 90.6761C99.3835 89.6831 101.872 88.0834 103.863 85.8768C104.416 85.3252 104.913 84.5529 105.356 83.5599C105.909 82.5669 106.185 81.1878 106.185 79.4226C106.185 79.0916 106.13 78.7606 106.019 78.4296C105.909 78.0986 105.853 77.6573 105.853 77.1057C105.522 75.1198 104.692 73.4648 103.365 72.1409C102.148 70.7066 100.6 69.6034 98.7199 68.8311C96.9503 68.0588 94.9043 67.5071 92.5818 67.1761C90.3698 66.8451 88.0473 66.6797 85.6142 66.6797C81.5221 66.6797 77.7619 66.9555 74.3334 67.5071C71.0155 67.9484 67.9741 68.2243 65.2091 68.3346V142.806C66.2045 142.806 67.3658 142.861 68.6929 142.972C70.1307 142.972 71.6237 143.027 73.1721 143.137C74.7204 143.248 76.2688 143.358 77.817 143.468C79.3653 143.468 80.8033 143.468 82.1304 143.468C86.5543 143.468 90.7016 143.248 94.5725 142.806C98.4434 142.255 101.872 141.372 104.858 140.158C107.844 138.834 110.277 137.014 112.157 134.697C114.037 132.38 115.199 129.401 115.641 125.76Z" fill="white"/>
    <path d="M87.2676 163.769H77.7632C82.0832 167.216 91.5181 174.112 103.684 174.112C117.747 174.112 122.693 170.664 122.693 170.664C122.693 170.664 127.622 179.777 132.197 184.455C137.1 189.468 146.886 194.798 146.886 194.798L158.982 184.455C158.982 184.455 148.128 178.466 143.43 172.388C140.388 168.452 137.382 161.183 137.382 161.183C137.382 161.183 140.484 158.174 143.43 153.425C148.601 145.09 150.342 138.772 150.342 129.291C150.342 123.149 149.243 118.658 146.886 112.914C144.121 106.175 140.838 102.571 136.518 98.2611C132.393 94.1466 126.149 90.5037 126.149 90.5037C126.149 90.5037 125.285 94.8134 122.693 97.3992C128.741 101.709 134.789 109.466 136.518 118.948C138.981 132.461 134.789 144.806 126.149 151.701C114.484 161.011 102.527 163.769 87.2676 163.769Z" fill="white"/>
</svg>
