<svg width="24" height="24" viewBox="0 0 24 24" fill="none" xmlns="http://www.w3.org/2000/svg">
<path d="M16.5096 6.56223C15.3566 5.59547 13.9227 5.026 12.4205 4.93823C10.9184 4.85047 9.4279 5.24908 8.1701 6.07499C6.9123 6.90089 5.95411 8.11011 5.43758 9.52339C4.92105 10.9367 4.87367 12.4788 5.30247 13.9211C5.73127 15.3634 6.61342 16.6292 7.81815 17.5308C9.02288 18.4323 10.4861 18.9217 11.9908 18.9263C13.4955 18.9309 14.9616 18.4505 16.1719 17.5564C17.3821 16.6622 18.272 15.4019 18.7096 13.9622H12.0096V9.96223H22.8096C23.2944 12.5338 22.8465 15.194 21.5464 17.4651C20.2462 19.7362 18.179 21.4694 15.7159 22.3534C13.2528 23.2374 10.5553 23.2143 8.10768 22.2883C5.66008 21.3623 3.62278 19.5941 2.36165 17.3011C1.10051 15.0081 0.698155 12.3407 1.22684 9.77772C1.75552 7.21477 3.18061 4.92426 5.24618 3.31752C7.31175 1.71078 9.88248 0.893063 12.4967 1.01123C15.111 1.12939 17.5974 2.17569 19.5096 3.96223L16.5096 6.56223Z" stroke="white" stroke-width="2" stroke-linecap="round" stroke-linejoin="round"/>
</svg>
