<svg viewBox="0 0 200 200" fill="none" xmlns="http://www.w3.org/2000/svg">
<g clip-path="url(#clip0_164_20)">
<path d="M166.667 0H33.3333C14.9238 0 0 14.8877 0 33.2525V166.263C0 184.627 14.9238 199.515 33.3333 199.515H166.667C185.076 199.515 200 184.627 200 166.263V33.2525C200 14.8877 185.076 0 166.667 0Z" fill="#284239"/>
<path d="M90.351 149.637H26.3159L27.193 30.6274H90.351C90.351 30.6274 129.825 34.9425 129.825 60.3796C129.825 80.5062 122.807 83.1321 122.807 83.1321C122.807 83.1321 138.597 90.8354 138.597 114.634C138.597 147.887 90.351 149.637 90.351 149.637Z" fill="#284239" stroke="#284239"/>
<path d="M115.381 85.2104C120.995 87.4506 125.15 90.8669 127.844 95.4592C130.539 99.9396 131.886 104.868 131.886 110.244C131.886 116.965 130.595 122.453 128.013 126.71C125.543 130.966 122.174 134.326 117.907 136.79C113.753 139.255 108.981 140.991 103.592 141.999C98.2022 142.895 92.5882 143.343 86.7496 143.343H51.8864V54.6321H48.1812C47.2829 54.6321 46.3285 54.5201 45.318 54.2961C44.3075 53.9601 43.1847 53.6241 41.9496 53.288V39.343C43.0724 39.567 44.3075 39.791 45.6548 40.015C47.1145 40.239 48.518 40.351 49.8654 40.351C52.3355 40.351 54.7496 40.183 57.1075 39.847C59.5777 39.511 62.0478 39.343 64.518 39.343C67.9987 38.8949 71.4794 38.5029 74.9601 38.1669C78.4408 37.8309 82.0899 37.6628 85.9075 37.6628C90.2864 37.6628 94.6092 38.0549 98.8759 38.8389C103.143 39.623 106.96 41.0231 110.329 43.0392C113.809 45.0554 116.616 47.8556 118.75 51.4399C120.883 55.0242 121.949 59.6165 121.949 65.2169C121.949 69.0252 121.332 72.1615 120.097 74.6256C118.862 76.9778 117.514 78.994 116.055 80.6741L111.507 83.6983L115.381 85.2104ZM117.402 111.924C117.402 108.228 116.392 105.148 114.371 102.684C112.462 100.108 109.992 98.0914 106.96 96.6353C104.041 95.1792 100.785 94.1711 97.1917 93.6111C93.711 92.939 90.3426 92.603 87.0864 92.603H79.1706V78.3219H87.0864C91.3531 77.9859 94.9461 77.3138 97.8654 76.3058C100.897 75.2977 103.423 73.6736 105.444 71.4334C106.006 70.8734 106.511 70.0893 106.96 69.0812C107.522 68.0731 107.802 66.673 107.802 64.8809C107.802 64.5449 107.746 64.2088 107.634 63.8728C107.522 63.5368 107.465 63.0888 107.465 62.5287C107.129 60.5126 106.286 58.8324 104.939 57.4883C103.704 56.0322 102.132 54.9121 100.223 54.1281C98.4268 53.344 96.3496 52.784 93.9917 52.448C91.7461 52.1119 89.3882 51.9439 86.918 51.9439C82.7636 51.9439 78.9461 52.2239 75.4654 52.784C72.097 53.232 69.0092 53.512 66.2022 53.624V129.23C67.2127 129.23 68.3917 129.286 69.7391 129.398C71.1987 129.398 72.7145 129.454 74.2864 129.566C75.8584 129.678 77.4303 129.79 79.002 129.902C80.574 129.902 82.0338 129.902 83.3812 129.902C87.8724 129.902 92.0829 129.678 96.0127 129.23C99.9426 128.67 103.423 127.774 106.455 126.542C109.486 125.197 111.957 123.349 113.865 120.997C115.774 118.645 116.953 115.621 117.402 111.924Z" fill="white"/>
<path d="M88.5965 150.511H78.9474C83.3332 154.012 92.9118 161.012 105.263 161.012C119.54 161.012 124.561 157.512 124.561 157.512C124.561 157.512 129.566 166.763 134.211 171.513C139.188 176.602 149.123 182.014 149.123 182.014L161.404 171.513C161.404 171.513 150.383 165.433 145.614 159.262C142.526 155.266 139.474 147.886 139.474 147.886C139.474 147.886 142.623 144.832 145.614 140.011C150.864 131.549 152.632 125.135 152.632 115.509C152.632 109.273 151.515 104.714 149.123 98.8826C146.316 92.0404 142.982 88.3818 138.597 84.0065C134.409 79.8292 128.07 76.1309 128.07 76.1309C128.07 76.1309 127.193 80.5062 124.561 83.1314C130.702 87.5067 136.842 95.3823 138.597 105.008C141.097 118.727 136.842 131.26 128.07 138.261C116.228 147.712 104.088 150.511 88.5965 150.511Z" fill="white"/>
</g>
<defs>
<clipPath id="clip0_164_20">
<rect width="200" height="200" fill="white"/>
</clipPath>
</defs>
</svg>
